<svg xmlns="http://www.w3.org/2000/svg" viewBox="0 0 512 512" width="512" height="512">
<defs>
  <radialGradient id="bg" cx="50%" cy="45%" r="65%">
    <stop offset="0%"   stop-color="#1a1a32"/>
    <stop offset="100%" stop-color="#07070f"/>
  </radialGradient>
  <filter id="glow" x="-40%" y="-40%" width="180%" height="180%">
    <feGaussianBlur stdDeviation="4" result="b"/>
    <feMerge><feMergeNode in="b"/><feMergeNode in="SourceGraphic"/></feMerge>
  </filter>
  <filter id="softglow" x="-20%" y="-20%" width="140%" height="140%">
    <feGaussianBlur stdDeviation="2" result="b"/>
    <feMerge><feMergeNode in="b"/><feMergeNode in="SourceGraphic"/></feMerge>
  </filter>
</defs>
<rect x="0" y="0" width="512" height="512" rx="108" ry="108" fill="url(#bg)"/>
<g clip-path="url(#clipRR)">
<defs><clipPath id="clipRR"><rect x="0" y="0" width="512" height="512" rx="108" ry="108"/></clipPath></defs>
<path d="M 310.0,122.2 L 378.8,216.3 L 310.4,301.9 L 199.3,260.8 L 199.0,149.7 Z" fill="rgba(10,10,28,0.6)" stroke="#2a3a5a" stroke-width="1.2" stroke-opacity="0.5" stroke-linejoin="round"/>
<path d="M 310.4,301.9 L 311.5,393.6 L 201.1,409.1 L 131.7,327.0 L 199.3,260.8 Z" fill="rgba(10,10,28,0.6)" stroke="#2a3a5a" stroke-width="1.2" stroke-opacity="0.5" stroke-linejoin="round"/>
<path d="M 131.3,147.3 L 199.0,149.7 L 199.3,260.8 L 131.7,327.0 L 89.7,256.9 Z" fill="rgba(10,10,28,0.6)" stroke="#2a3a5a" stroke-width="1.2" stroke-opacity="0.5" stroke-linejoin="round"/>
<path d="M 380.7,364.7 L 311.5,393.6 L 310.4,301.9 L 378.8,216.3 L 422.3,255.1 Z" fill="rgba(10,10,28,0.6)" stroke="#2a3a5a" stroke-width="1.2" stroke-opacity="0.5" stroke-linejoin="round"/>
<path d="M 310.0,122.2 L 199.0,149.7 L 131.3,147.3 L 200.5,118.4 L 310.9,102.9 Z" fill="rgba(10,10,28,0.6)" stroke="#2a3a5a" stroke-width="1.2" stroke-opacity="0.5" stroke-linejoin="round"/>
<path d="M 380.3,185.0 L 422.3,255.1 L 378.8,216.3 L 310.0,122.2 L 310.9,102.9 Z" fill="rgba(10,10,28,0.6)" stroke="#2a3a5a" stroke-width="1.2" stroke-opacity="0.5" stroke-linejoin="round"/>
<path d="M 202.0,389.8 L 133.2,295.7 L 89.7,256.9 L 131.7,327.0 L 201.1,409.1 Z" fill="rgba(30,40,70,0.26)" stroke="#3eccc4" stroke-width="0" stroke-linejoin="round"/>
<path d="M 380.7,364.7 L 313.0,362.3 L 202.0,389.8 L 201.1,409.1 L 311.5,393.6 Z" fill="rgba(30,40,70,0.26)" stroke="#3eccc4" stroke-width="0" stroke-linejoin="round"/>
<path d="M 201.6,210.1 L 200.5,118.4 L 131.3,147.3 L 89.7,256.9 L 133.2,295.7 Z" fill="rgba(30,40,70,0.28)" stroke="#3eccc4" stroke-width="0" stroke-linejoin="round"/>
<path d="M 380.3,185.0 L 312.7,251.2 L 313.0,362.3 L 380.7,364.7 L 422.3,255.1 Z" fill="rgba(30,40,70,0.28)" stroke="#3eccc4" stroke-width="0" stroke-linejoin="round"/>
<path d="M 380.3,185.0 L 310.9,102.9 L 200.5,118.4 L 201.6,210.1 L 312.7,251.2 Z" fill="rgba(30,40,70,0.29)" stroke="#3eccc4" stroke-width="0" stroke-linejoin="round"/>
<path d="M 201.6,210.1 L 133.2,295.7 L 202.0,389.8 L 313.0,362.3 L 312.7,251.2 Z" fill="rgba(30,40,70,0.30)" stroke="#3eccc4" stroke-width="0" stroke-linejoin="round"/>
<path d="M 202.0,389.8 L 133.2,295.7 L 89.7,256.9 L 131.7,327.0 L 201.1,409.1 Z" fill="none" stroke="#5de8e0" stroke-width="2.1" stroke-opacity="0.74" stroke-linejoin="round" filter="url(#softglow)"/>
<path d="M 202.0,389.8 L 133.2,295.7 L 89.7,256.9 L 131.7,327.0 L 201.1,409.1 Z" fill="none" stroke="#b0f8f4" stroke-width="0.7" stroke-opacity="0.44" stroke-linejoin="round"/>
<path d="M 380.7,364.7 L 313.0,362.3 L 202.0,389.8 L 201.1,409.1 L 311.5,393.6 Z" fill="none" stroke="#5de8e0" stroke-width="2.2" stroke-opacity="0.75" stroke-linejoin="round" filter="url(#softglow)"/>
<path d="M 380.7,364.7 L 313.0,362.3 L 202.0,389.8 L 201.1,409.1 L 311.5,393.6 Z" fill="none" stroke="#b0f8f4" stroke-width="0.7" stroke-opacity="0.45" stroke-linejoin="round"/>
<path d="M 201.6,210.1 L 200.5,118.4 L 131.3,147.3 L 89.7,256.9 L 133.2,295.7 Z" fill="none" stroke="#5de8e0" stroke-width="2.3" stroke-opacity="0.79" stroke-linejoin="round" filter="url(#softglow)"/>
<path d="M 201.6,210.1 L 200.5,118.4 L 131.3,147.3 L 89.7,256.9 L 133.2,295.7 Z" fill="none" stroke="#b0f8f4" stroke-width="0.7" stroke-opacity="0.47" stroke-linejoin="round"/>
<path d="M 380.3,185.0 L 312.7,251.2 L 313.0,362.3 L 380.7,364.7 L 422.3,255.1 Z" fill="none" stroke="#5de8e0" stroke-width="2.4" stroke-opacity="0.80" stroke-linejoin="round" filter="url(#softglow)"/>
<path d="M 380.3,185.0 L 312.7,251.2 L 313.0,362.3 L 380.7,364.7 L 422.3,255.1 Z" fill="none" stroke="#b0f8f4" stroke-width="0.7" stroke-opacity="0.48" stroke-linejoin="round"/>
<path d="M 380.3,185.0 L 310.9,102.9 L 200.5,118.4 L 201.6,210.1 L 312.7,251.2 Z" fill="none" stroke="#5de8e0" stroke-width="2.4" stroke-opacity="0.83" stroke-linejoin="round" filter="url(#softglow)"/>
<path d="M 380.3,185.0 L 310.9,102.9 L 200.5,118.4 L 201.6,210.1 L 312.7,251.2 Z" fill="none" stroke="#b0f8f4" stroke-width="0.7" stroke-opacity="0.50" stroke-linejoin="round"/>
<path d="M 201.6,210.1 L 133.2,295.7 L 202.0,389.8 L 313.0,362.3 L 312.7,251.2 Z" fill="none" stroke="#5de8e0" stroke-width="2.5" stroke-opacity="0.85" stroke-linejoin="round" filter="url(#softglow)"/>
<path d="M 201.6,210.1 L 133.2,295.7 L 202.0,389.8 L 313.0,362.3 L 312.7,251.2 Z" fill="none" stroke="#b0f8f4" stroke-width="0.7" stroke-opacity="0.51" stroke-linejoin="round"/>
<path d="M 310.0,122.2 L 378.8,216.3 L 310.4,301.9 L 199.3,260.8 L 199.0,149.7 Z" fill="none" stroke="#2a4060" stroke-width="1" stroke-opacity="0.4" stroke-linejoin="round"/>
<path d="M 310.4,301.9 L 311.5,393.6 L 201.1,409.1 L 131.7,327.0 L 199.3,260.8 Z" fill="none" stroke="#2a4060" stroke-width="1" stroke-opacity="0.4" stroke-linejoin="round"/>
<path d="M 131.3,147.3 L 199.0,149.7 L 199.3,260.8 L 131.7,327.0 L 89.7,256.9 Z" fill="none" stroke="#2a4060" stroke-width="1" stroke-opacity="0.4" stroke-linejoin="round"/>
<path d="M 380.7,364.7 L 311.5,393.6 L 310.4,301.9 L 378.8,216.3 L 422.3,255.1 Z" fill="none" stroke="#2a4060" stroke-width="1" stroke-opacity="0.4" stroke-linejoin="round"/>
<path d="M 310.0,122.2 L 199.0,149.7 L 131.3,147.3 L 200.5,118.4 L 310.9,102.9 Z" fill="none" stroke="#2a4060" stroke-width="1" stroke-opacity="0.4" stroke-linejoin="round"/>
<path d="M 380.3,185.0 L 422.3,255.1 L 378.8,216.3 L 310.0,122.2 L 310.9,102.9 Z" fill="none" stroke="#2a4060" stroke-width="1" stroke-opacity="0.4" stroke-linejoin="round"/>
</g>
<rect x="0" y="0" width="512" height="512" rx="108" ry="108" fill="none" stroke="#5de8e0" stroke-width="1.5" stroke-opacity="0.1"/>
</svg>